<svg width="70" height="71" viewBox="0 0 70 71" fill="none" xmlns="http://www.w3.org/2000/svg">
<path d="M44.3333 44.8555V34.2377C44.3333 32.308 42.763 30.7377 40.8333 30.7377H8.16667C6.237 30.7377 4.66667 32.308 4.66667 34.2377V44.8555C2.00783 45.398 0 47.7547 0 50.571V57.571V69.2377C0 69.8817 0.522667 70.4043 1.16667 70.4043H5.83333C6.47733 70.4043 7 69.8817 7 69.2377V65.7377H42V69.2377C42 69.8817 42.5227 70.4043 43.1667 70.4043H47.8333C48.4773 70.4043 49 69.8817 49 69.2377V57.571V50.571C49 47.7547 46.9922 45.398 44.3333 44.8555ZM7 34.2377C7 33.5948 7.52383 33.071 8.16667 33.071H40.8333C41.4762 33.071 42 33.5948 42 34.2377V44.7377H39.6667V40.071C39.6667 38.1413 38.0963 36.571 36.1667 36.571H29.1667C27.237 36.571 25.6667 38.1413 25.6667 40.071V44.7377H23.3333V40.071C23.3333 38.1413 21.763 36.571 19.8333 36.571H12.8333C10.9037 36.571 9.33333 38.1413 9.33333 40.071V44.7377H7V34.2377ZM37.3333 40.071V44.7377H28V40.071C28 39.4282 28.5238 38.9043 29.1667 38.9043H36.1667C36.8095 38.9043 37.3333 39.4282 37.3333 40.071ZM21 40.071V44.7377H11.6667V40.071C11.6667 39.4282 12.1905 38.9043 12.8333 38.9043H19.8333C20.4762 38.9043 21 39.4282 21 40.071ZM46.6667 68.071H44.3333V64.571C44.3333 63.927 43.8107 63.4043 43.1667 63.4043H5.83333C5.18933 63.4043 4.66667 63.927 4.66667 64.571V68.071H2.33333V58.7377H46.6667V68.071ZM46.6667 56.4043H2.33333V50.571C2.33333 48.6413 3.90367 47.071 5.83333 47.071H10.5H22.1667H26.8333H38.5H43.1667C45.0963 47.071 46.6667 48.6413 46.6667 50.571V56.4043Z" fill="#0600AE"/>
<path d="M68.8333 44.7377H52.5C51.856 44.7377 51.3333 45.2603 51.3333 45.9043V55.2377V63.4043H53.6667V56.4043H67.6667V63.4043H70V55.2377V45.9043C70 45.2603 69.4773 44.7377 68.8333 44.7377ZM67.6667 54.071H53.6667V47.071H67.6667V54.071Z" fill="#0600AE"/>
<path d="M63 49.4043H58.3333V51.7376H63V49.4043Z" fill="#0600AE"/>
<path d="M66.4405 35.0345L64.1072 28.0345C63.9473 27.5585 63.5028 27.2377 63 27.2377H58.3333C57.8305 27.2377 57.386 27.5585 57.2262 28.0357L54.8928 35.0357C54.7738 35.3915 54.8345 35.7823 55.0538 36.0868C55.2732 36.3913 55.6255 36.571 56 36.571H59.5V40.071H57.1667V42.4043H64.1667V40.071H61.8333V36.571H65.3333C65.7078 36.571 66.0602 36.3913 66.2795 36.0857C66.4988 35.7812 66.5583 35.3903 66.4405 35.0345ZM57.6182 34.2377L59.1745 29.571H62.16L63.7152 34.2377H57.6182Z" fill="#0600AE"/>
<path d="M69.3105 15.6725L35.4772 0.505797C35.1727 0.370464 34.8262 0.370464 34.5228 0.505797L0.6895 15.6725C0.2695 15.8615 0 16.278 0 16.7376V30.7376H2.33333V17.4925L35 2.84963L67.6667 17.4936V30.7376H70V16.7376C70 16.278 69.7305 15.8615 69.3105 15.6725Z" fill="#0600AE"/>
<path d="M43.0535 16.544L40.7517 16.9313C40.8065 17.2498 40.8333 17.5765 40.8333 17.9043C40.8333 21.1208 38.2165 23.7377 35 23.7377C31.7835 23.7377 29.1667 21.1208 29.1667 17.9043C29.1667 14.6878 31.7835 12.071 35 12.071C35.6673 12.071 36.323 12.183 36.946 12.4035L37.723 10.2032C36.8492 9.894 35.9333 9.73767 35 9.73767C30.4967 9.73767 26.8333 13.401 26.8333 17.9043C26.8333 22.4077 30.4967 26.071 35 26.071C39.5033 26.071 43.1667 22.4077 43.1667 17.9043C43.1667 17.447 43.1282 16.9897 43.0535 16.544Z" fill="#0600AE"/>
<path d="M42.3418 10.0795L35 17.4213L33.4915 15.9128L31.8418 17.5625L34.1752 19.8958C34.4027 20.1233 34.7013 20.2376 35 20.2376C35.2987 20.2376 35.5973 20.1233 35.8248 19.8958L43.9915 11.7291L42.3418 10.0795Z" fill="#0600AE"/>
</svg>
