<svg width="70" height="71" viewBox="0 0 70 71" fill="none" xmlns="http://www.w3.org/2000/svg">
<path d="M53.0645 59.1143C51.197 59.1143 49.6774 60.6339 49.6774 62.5014C49.6774 64.3688 51.197 65.8885 53.0645 65.8885C54.9319 65.8885 56.4516 64.3688 56.4516 62.5014C56.4516 60.6339 54.9319 59.1143 53.0645 59.1143ZM53.0645 63.6304C52.4424 63.6304 51.9354 63.1246 51.9354 62.5014C51.9354 61.8781 52.4424 61.3723 53.0645 61.3723C53.6866 61.3723 54.1935 61.8781 54.1935 62.5014C54.1935 63.1246 53.6866 63.6304 53.0645 63.6304Z" fill="#219653"/>
<path d="M14.6773 59.1143C12.8099 59.1143 11.2903 60.6339 11.2903 62.5014C11.2903 64.3688 12.8099 65.8885 14.6773 65.8885C16.5448 65.8885 18.0644 64.3688 18.0644 62.5014C18.0644 60.6339 16.5448 59.1143 14.6773 59.1143ZM14.6773 63.6304C14.0553 63.6304 13.5483 63.1246 13.5483 62.5014C13.5483 61.8781 14.0553 61.3723 14.6773 61.3723C15.2994 61.3723 15.8064 61.8781 15.8064 62.5014C15.8064 63.1246 15.2994 63.6304 14.6773 63.6304Z" fill="#219653"/>
<path d="M23.7096 52.34H25.9677V54.598H23.7096V52.34Z" fill="#219653"/>
<path d="M25.9677 50.0819H28.2257V52.34H25.9677V50.0819Z" fill="#219653"/>
<path d="M28.2257 52.34H30.4838V54.598H28.2257V52.34Z" fill="#219653"/>
<path d="M30.4838 50.0819H32.7419V52.34H30.4838V50.0819Z" fill="#219653"/>
<path d="M32.7419 52.34H34.9999V54.598H32.7419V52.34Z" fill="#219653"/>
<path d="M34.9999 50.0819H37.258V52.34H34.9999V50.0819Z" fill="#219653"/>
<path d="M37.258 52.34H39.5161V54.598H37.258V52.34Z" fill="#219653"/>
<path d="M39.5161 50.0819H41.7741V52.34H39.5161V50.0819Z" fill="#219653"/>
<path d="M41.7741 52.34H44.0322V54.598H41.7741V52.34Z" fill="#219653"/>
<path d="M36.129 10.5658H38.387V17.34H40.6451V10.5658H42.9032V8.30774H36.129V10.5658Z" fill="#219653"/>
<path d="M48.5483 8.30774C46.6809 8.30774 45.1612 9.82742 45.1612 11.6948V17.34H47.4193V15.0819H49.6774V17.34H51.9354V11.6948C51.9354 9.82742 50.4157 8.30774 48.5483 8.30774ZM47.4193 12.8239V11.6948C47.4193 11.0716 47.9262 10.5658 48.5483 10.5658C49.1704 10.5658 49.6774 11.0716 49.6774 11.6948V12.8239H47.4193Z" fill="#219653"/>
<path d="M58.7096 8.30774C58.7096 9.37355 58.2919 10.4077 57.5806 11.1969C56.8693 10.4077 56.4515 9.37355 56.4515 8.30774H54.1935C54.1935 9.97871 54.8517 11.6102 55.9977 12.8239C54.8517 14.0376 54.1935 15.669 54.1935 17.34H56.4515C56.4515 16.2742 56.8693 15.24 57.5806 14.4508C58.2919 15.24 58.7096 16.2742 58.7096 17.34H60.9677C60.9677 15.669 60.3094 14.0376 59.1635 12.8239C60.3094 11.6102 60.9677 9.97871 60.9677 8.30774H58.7096Z" fill="#219653"/>
<path d="M63.2257 8.30774H65.4838V17.34H63.2257V8.30774Z" fill="#219653"/>
<path d="M55.3225 29.7594C55.9457 29.7594 56.4516 29.2547 56.4516 28.6303V25.2432H68.8709C69.4941 25.2432 69.9999 24.7386 69.9999 24.1142V1.53357C69.9999 0.909218 69.4941 0.404541 68.8709 0.404541H32.7419C32.1186 0.404541 31.6128 0.909218 31.6128 1.53357V24.1142C31.6128 24.7386 32.1186 25.2432 32.7419 25.2432H45.1612V28.6303C45.1612 29.2547 45.667 29.7594 46.2903 29.7594H47.4193V35.7783L47.2364 35.61C45.3791 33.8962 43.1086 32.757 40.6711 32.2771V28.6303C40.6711 28.006 40.1653 27.5013 39.542 27.5013H21.4516C20.8283 27.5013 20.3225 28.006 20.3225 28.6303V32.4171C17.0777 33.2187 14.2099 35.1991 12.3086 38.051L7.29913 45.5658H5.6451C2.53236 45.5658 -6.10352e-05 48.0983 -6.10352e-05 51.211V60.2433C-6.10352e-05 62.1107 1.51962 63.6303 3.38704 63.6303H6.86445C7.41542 67.4532 10.7043 70.4045 14.6774 70.4045C18.6504 70.4045 21.9393 67.4532 22.4903 63.6303H45.2516C45.8025 67.4532 49.0914 70.4045 53.0645 70.4045C57.0375 70.4045 60.3264 67.4532 60.8774 63.6303H66.6128C68.4803 63.6303 69.9999 62.1107 69.9999 60.2433V51.211C69.9999 48.0983 67.4675 45.5658 64.3548 45.5658H58.022L54.1935 42.032V29.7594H55.3225ZM33.8709 2.66261H67.7419V22.9852H33.8709V2.66261ZM54.1935 25.2432V27.5013H47.4193V25.2432H54.1935ZM22.5806 29.7594H38.413V32.0344C38.2911 32.031 38.1703 32.0174 38.0472 32.0174H23.582C23.2445 32.0174 22.9136 32.0547 22.5806 32.0795V29.7594ZM28.2517 45.5658V34.2755H30.5098V45.5658H28.2517ZM14.1874 39.3031C16.2862 36.1553 19.7986 34.2755 23.582 34.2755H25.9936V45.5658H10.0122L14.1874 39.3031ZM4.51607 48.0316V51.211C4.51607 52.681 3.56881 53.9229 2.258 54.3904V51.211C2.258 49.741 3.20526 48.4991 4.51607 48.0316ZM14.6774 68.1465C11.5646 68.1465 9.0322 65.6141 9.0322 62.5013C9.0322 59.3886 11.5646 56.8562 14.6774 56.8562C17.7901 56.8562 20.3225 59.3886 20.3225 62.5013C20.3225 65.6141 17.7901 68.1465 14.6774 68.1465ZM53.0645 68.1465C49.9517 68.1465 47.4193 65.6141 47.4193 62.5013C47.4193 59.3886 49.9517 56.8562 53.0645 56.8562C56.1772 56.8562 58.7096 59.3886 58.7096 62.5013C58.7096 65.6141 56.1772 68.1465 53.0645 68.1465ZM66.6128 61.3723H60.8774C60.3264 57.5494 57.0375 54.5981 53.0645 54.5981C49.0914 54.5981 45.8025 57.5494 45.2516 61.3723H22.4903C21.9393 57.5494 18.6504 54.5981 14.6774 54.5981C10.7043 54.5981 7.41542 57.5494 6.86445 61.3723H3.38704C2.76494 61.3723 2.258 60.8665 2.258 60.2433V56.7421C4.83107 56.2171 6.77413 53.9365 6.77413 51.211V47.8239H60.9677V50.082C60.9677 52.5726 62.9932 54.5981 65.4838 54.5981H67.7419V60.2433C67.7419 60.8665 67.2349 61.3723 66.6128 61.3723ZM67.7419 51.211V52.34H65.4838C64.2385 52.34 63.2257 51.3273 63.2257 50.082V47.8239H64.3548C66.2222 47.8239 67.7419 49.3436 67.7419 51.211ZM32.7678 45.5658V34.2755H38.0472C40.8935 34.2755 43.6133 35.3379 45.7054 37.2686L54.6936 45.5658H32.7678ZM51.9354 39.9478L49.6774 37.8636V29.7594H51.9354V39.9478Z" fill="#219653"/>
</svg>
