<svg width="70" height="71" viewBox="0 0 70 71" fill="none" xmlns="http://www.w3.org/2000/svg">
<path d="M32.9796 35.4919C32.445 36.0249 32.445 36.8906 32.9796 37.4252C33.5142 37.9598 34.3793 37.9598 34.9129 37.4252C35.4475 36.8906 35.4475 36.0249 34.9129 35.4919C34.3793 34.9573 33.5142 34.9573 32.9796 35.4919Z" fill="#EEAA2B"/>
<path d="M54.7191 4.40368C52.3729 6.22003 51.7337 7.15624 43.413 15.3909L38.4249 14.5786L40.7138 12.2896C42.3171 10.6864 42.3176 8.09245 40.7138 6.48919C39.1111 4.88648 36.5156 4.88594 34.9129 6.48919L28.4475 12.9545L5.83642 9.27326C4.37523 9.03613 2.88039 9.51946 1.8347 10.5652C-0.176045 12.5759 0.0968602 15.9026 2.39065 17.5624L24.9232 33.8801L20.7047 38.0992C19.259 39.5449 17.7374 41.5332 16.1737 44.0161L5.66552 40.926C4.1146 40.4705 2.43979 40.8972 1.29423 42.0406C-0.656166 43.991 -0.361364 47.2301 1.90412 48.7991L10.5185 54.7625C9.01889 58.0721 8.10725 60.4652 8.06506 60.5757C7.87386 61.0788 7.99616 61.6476 8.37642 62.0279C8.7588 62.4102 9.32811 62.5293 9.82853 62.3392C9.93908 62.2976 12.3322 61.3854 15.6418 59.8857L21.6057 68.5007C23.1774 70.7699 26.4165 71.0572 28.3647 69.109C29.5076 67.9645 29.9343 66.2897 29.4783 64.7387L26.3887 54.2311C28.8732 52.6663 30.8604 51.1447 32.3056 49.7001L36.5247 45.481L52.8418 68.0136C54.5044 70.3111 57.831 70.5782 59.8397 68.5696C60.8848 67.5244 61.3681 66.0285 61.1315 64.5668L57.4503 41.9573L63.9151 35.4925C65.5183 33.8892 65.5183 31.2937 63.9151 29.691C62.3124 28.0877 59.7184 28.0877 58.1152 29.691L55.8256 31.9799L55.0139 26.9918C63.2571 18.6626 64.1784 18.0383 65.9958 15.6921C65.9979 15.6895 66.0006 15.6863 66.0027 15.6831C70.2197 10.218 71.2066 4.69849 68.4567 1.94753C65.7063 -0.80128 60.1863 0.184597 54.7191 4.40368ZM36.8462 8.42303C37.3802 7.88843 38.2459 7.88843 38.7805 8.42303C39.3151 8.95763 39.3146 9.8212 38.7805 10.3558L35.0987 14.0371L31.7731 13.4955L36.8462 8.42303ZM3.99391 15.3471C3.05823 14.6705 2.95088 13.3156 3.76853 12.4985C4.19418 12.0723 4.80408 11.8752 5.39795 11.9719L41.0305 17.7734L26.8816 31.9217L3.99391 15.3471ZM3.22753 43.975C3.66439 43.5386 4.30313 43.3752 4.89433 43.5493L14.7227 46.4397C13.7176 48.1999 12.7034 50.1444 11.6919 52.2492L3.46091 46.5513C2.59734 45.9531 2.48412 44.7178 3.22753 43.975ZM26.4304 67.1767C25.6934 67.9137 24.4565 67.8144 23.8535 66.9439L18.1556 58.7124C20.262 57.6998 22.207 56.6851 23.9651 55.6821L26.8549 65.5099C27.029 66.1017 26.8662 66.7404 26.4304 67.1767ZM60.049 31.6243C60.5831 31.0902 61.4472 31.0897 61.9818 31.6243C62.5164 32.1589 62.5158 33.024 61.9818 33.5586L56.9087 38.6311L56.3677 35.3056L60.049 31.6243ZM58.4324 65.0052C58.5291 65.6007 58.332 66.2106 57.9063 66.6363C57.093 67.4496 55.737 67.3503 55.0571 66.4104L38.4825 43.5232L52.6314 29.3743L58.4324 65.0052ZM30.3723 47.7663C28.8678 49.2713 26.6659 50.8959 23.8279 52.5958C20.1386 54.8052 15.7726 56.8977 11.8345 58.5703C13.5525 54.5254 15.6845 50.0889 17.9415 46.3574C19.5922 43.6262 21.1725 41.498 22.6385 40.0325C56.0355 6.71563 54.0568 8.43425 56.0836 6.81337C58.332 6.66971 60.3112 7.33728 61.6891 8.71516C63.067 10.093 63.7351 12.0728 63.5914 14.3207C61.9668 16.3522 63.6651 14.3928 30.3723 47.7663ZM65.9312 10.728C65.4943 9.22092 64.7183 7.87722 63.6229 6.78186C62.5276 5.68703 61.1839 4.91051 59.6773 4.47365C61.656 3.47014 64.988 2.34648 66.5234 3.88084C67.7357 5.09369 67.4345 7.76346 65.9312 10.728Z" fill="#EEAA2B"/>
<path d="M40.7138 27.7576L36.8472 31.6237C36.3131 32.1577 36.3131 33.0234 36.8472 33.5575C37.3813 34.0916 38.2464 34.091 38.781 33.5575L42.6471 29.6909C43.1812 29.1574 43.1812 28.2917 42.6471 27.7576C42.113 27.2235 41.2479 27.2235 40.7138 27.7576Z" fill="#EEAA2B"/>
<path d="M48.4481 20.0233L44.5799 23.891C44.0464 24.4251 44.0464 25.2908 44.5799 25.8249C45.1145 26.3584 45.9797 26.3584 46.5137 25.8249L50.3814 21.9572C50.9155 21.4231 50.9155 20.5574 50.3814 20.0233C49.8473 19.4893 48.9822 19.4893 48.4481 20.0233Z" fill="#EEAA2B"/>
</svg>
