<svg width="73" height="71" viewBox="0 0 73 71" fill="none" xmlns="http://www.w3.org/2000/svg">
<path d="M6.93194 11.6481C7.1854 11.6481 7.44 11.558 7.6432 11.3749C7.89695 11.1465 8.15822 10.9181 8.41964 10.6963C8.8675 10.3165 8.92274 9.64541 8.54275 9.19755C8.16291 8.74969 7.49197 8.69431 7.04397 9.07444C6.76651 9.30973 6.48933 9.55212 6.21996 9.79465C5.78346 10.1877 5.74839 10.8601 6.14144 11.2966C6.35131 11.5296 6.64099 11.6481 6.93194 11.6481Z" fill="#BB6BD9"/>
<path d="M35.7041 2.89238C36.3909 2.99249 37.0829 3.11475 37.7606 3.25603C37.8339 3.27123 37.9069 3.27861 37.9787 3.27861C38.4717 3.27861 38.9141 2.9337 39.0187 2.43188C39.1386 1.85694 38.7695 1.29378 38.1946 1.17393C37.4746 1.02384 36.7398 0.894054 36.0107 0.787698C35.4293 0.703209 34.8897 1.10549 34.8051 1.68682C34.7203 2.26802 35.1229 2.80775 35.7041 2.89238Z" fill="#BB6BD9"/>
<path d="M52.6729 10.4499C53.2073 10.8929 53.7346 11.3578 54.2407 11.8316C54.4458 12.0236 54.7067 12.1187 54.9672 12.1187C55.2512 12.1187 55.5343 12.0057 55.7437 11.7822C56.1452 11.3535 56.1232 10.6806 55.6945 10.2792C55.1574 9.77622 54.5975 9.28292 54.0304 8.81277C53.578 8.4379 52.9081 8.50066 52.5331 8.95264C52.1583 9.40462 52.2209 10.075 52.6729 10.4499Z" fill="#BB6BD9"/>
<path d="M41.7911 4.35657C42.4483 4.58008 43.1071 4.82673 43.7491 5.08985C43.8812 5.14395 44.0176 5.16951 44.152 5.16951C44.5707 5.16951 44.9677 4.92044 45.1364 4.50894C45.3591 3.96551 45.0991 3.34442 44.5555 3.12177C43.8736 2.84232 43.1737 2.58033 42.4757 2.34305C41.92 2.15391 41.3157 2.45154 41.1266 3.00746C40.9374 3.56352 41.235 4.16743 41.7911 4.35657Z" fill="#BB6BD9"/>
<path d="M29.414 2.55338C29.4268 2.55338 29.4396 2.55324 29.4524 2.55267C30.1431 2.52825 30.8475 2.52442 31.5427 2.54103C32.1296 2.55793 32.6174 2.09062 32.6314 1.50346C32.6455 0.916299 32.181 0.428965 31.5938 0.414765C30.8569 0.3973 30.1098 0.401418 29.3773 0.427261C28.7902 0.447993 28.3313 0.940723 28.3522 1.5276C28.3723 2.10169 28.8441 2.55338 29.414 2.55338Z" fill="#BB6BD9"/>
<path d="M61.6568 21.8497C61.8415 22.2265 62.2194 22.4454 62.6126 22.4454C62.7696 22.4454 62.9291 22.4104 63.0796 22.3366C63.607 22.0781 63.8251 21.4411 63.5667 20.9138C63.2429 20.2529 62.8947 19.5936 62.5317 18.9541C62.2417 18.4433 61.5926 18.2645 61.082 18.5542C60.5712 18.8442 60.3922 19.4932 60.6821 20.004C61.0238 20.6063 61.3518 21.2273 61.6568 21.8497Z" fill="#BB6BD9"/>
<path d="M58.4053 16.505C58.6139 16.7866 58.9351 16.9356 59.2606 16.9356C59.4805 16.9356 59.7025 16.8676 59.8927 16.7266C60.3646 16.377 60.4637 15.711 60.1141 15.2391C59.6758 14.6473 59.214 14.0616 58.7419 13.4983C58.3643 13.0481 57.6938 12.9891 57.2436 13.3665C56.7936 13.7438 56.7347 14.4146 57.1119 14.8646C57.557 15.3953 57.9921 15.9474 58.4053 16.505Z" fill="#BB6BD9"/>
<path d="M63.2605 25.7009C63.4878 26.3565 63.6976 27.0271 63.8837 27.6939C64.0149 28.1638 64.4422 28.4715 64.9074 28.4715C65.0021 28.4715 65.0984 28.4587 65.1941 28.432C65.7596 28.274 66.0902 27.6874 65.9322 27.1217C65.7344 26.4133 65.5116 25.7009 65.2702 25.0044C65.0779 24.4496 64.4719 24.1556 63.9171 24.3478C63.3622 24.5402 63.0682 25.1461 63.2605 25.7009Z" fill="#BB6BD9"/>
<path d="M23.0134 3.3632C23.0892 3.3632 23.1662 3.35496 23.2433 3.33806C23.9194 3.18911 24.6098 3.0589 25.2952 2.95112C25.8754 2.85982 26.2717 2.31554 26.1805 1.73534C26.0894 1.15528 25.5448 0.758686 24.9647 0.84999C24.2369 0.964439 23.5037 1.10274 22.7855 1.26107C22.212 1.38745 21.8495 1.95487 21.976 2.5284C22.0855 3.02482 22.5252 3.3632 23.0134 3.3632Z" fill="#BB6BD9"/>
<path d="M47.5108 6.90605C48.1152 7.24471 48.7182 7.60695 49.3025 7.98267C49.4804 8.09698 49.6795 8.15165 49.8766 8.15165C50.2263 8.15165 50.569 7.97926 50.772 7.66318C51.0897 7.16917 50.9465 6.51115 50.4525 6.19365C49.8321 5.79492 49.1922 5.41025 48.5503 5.05071C48.0377 4.76359 47.3898 4.9462 47.1028 5.45867C46.8158 5.971 46.9984 6.61907 47.5108 6.90605Z" fill="#BB6BD9"/>
<path d="M16.8678 5.32237C17.0059 5.32237 17.1462 5.29524 17.2815 5.23816C17.9204 4.96794 18.5754 4.71419 19.2289 4.48373C19.7827 4.28848 20.0733 3.68102 19.878 3.12723C19.6827 2.5733 19.0751 2.28263 18.5215 2.47816C17.8274 2.72282 17.1316 2.99262 16.4531 3.27945C15.9123 3.50821 15.6592 4.13215 15.888 4.67316C16.0594 5.07856 16.4533 5.32237 16.8678 5.32237Z" fill="#BB6BD9"/>
<path d="M11.1792 8.36703C11.38 8.36703 11.583 8.31023 11.7632 8.19152C12.3426 7.80998 12.941 7.44135 13.5419 7.09573C14.051 6.80293 14.2263 6.15287 13.9337 5.64381C13.641 5.13461 12.9909 4.95938 12.4817 5.25204C11.8437 5.61896 11.2085 6.01031 10.5935 6.41542C10.103 6.73847 9.96726 7.3979 10.2903 7.88836C10.4946 8.19877 10.8336 8.36703 11.1792 8.36703Z" fill="#BB6BD9"/>
<path d="M65.6557 30.5841C65.0749 30.6717 64.6752 31.2136 64.7628 31.7942C64.8141 32.1333 64.8607 32.4773 64.9017 32.8169C64.967 33.3566 65.4258 33.7528 65.956 33.7528C65.9986 33.7528 66.0418 33.7502 66.085 33.7449C66.668 33.6745 67.0835 33.1447 67.0132 32.5617C66.9696 32.2016 66.9201 31.8365 66.8658 31.4768C66.7782 30.8962 66.2346 30.4969 65.6557 30.5841Z" fill="#BB6BD9"/>
<path d="M13.3481 28.548C13.3481 27.9607 12.8719 27.4846 12.2846 27.4846H10.2424C9.65513 27.4846 9.17902 27.9607 9.17902 28.548C9.17902 29.1353 9.65513 29.6115 10.2424 29.6115H12.2846C12.8719 29.6115 13.3481 29.1353 13.3481 28.548Z" fill="#BB6BD9"/>
<path d="M15.7406 32.3549H13.6984C13.1111 32.3549 12.6349 32.831 12.6349 33.4183C12.6349 34.0056 13.1111 34.4817 13.6984 34.4817H15.7404C16.3277 34.4817 16.8038 34.0056 16.8038 33.4183C16.804 32.831 16.3279 32.3549 15.7406 32.3549Z" fill="#BB6BD9"/>
<path d="M10.8711 41.9368H8.82886C8.24156 41.9368 7.76544 42.4129 7.76544 43.0002C7.76544 43.5875 8.24156 44.0636 8.82886 44.0636H10.8709C11.4582 44.0636 11.9343 43.5875 11.9343 43.0002C11.9345 42.4129 11.4584 41.9368 10.8711 41.9368Z" fill="#BB6BD9"/>
<path d="M32.7358 11.4612H30.6936C30.1063 11.4612 29.6302 11.9373 29.6302 12.5246C29.6302 13.1119 30.1063 13.588 30.6936 13.588H32.7358C33.3231 13.588 33.7992 13.1119 33.7992 12.5246C33.7992 11.9373 33.3231 11.4612 32.7358 11.4612Z" fill="#BB6BD9"/>
<path d="M39.7653 52.4354C39.7653 51.8481 39.2894 51.3719 38.7019 51.3719H36.6597C36.0724 51.3719 35.5963 51.8481 35.5963 52.4354C35.5963 53.0227 36.0724 53.4988 36.6597 53.4988H38.7019C39.2892 53.4988 39.7653 53.0227 39.7653 52.4354Z" fill="#BB6BD9"/>
<path d="M34.2321 55.3068H32.1899C31.6026 55.3068 31.1265 55.7829 31.1265 56.3702C31.1265 56.9575 31.6026 57.4336 32.1899 57.4336H34.2321C34.8194 57.4336 35.2956 56.9575 35.2956 56.3702C35.2956 55.7829 34.8194 55.3068 34.2321 55.3068Z" fill="#BB6BD9"/>
<path d="M71.5744 37.5276C70.8247 36.7777 69.788 36.3669 68.7268 36.4015C65.9428 36.4913 63.2757 37.6321 61.2806 39.5556C61.3506 38.7066 61.3867 37.8506 61.3867 36.9891C61.3867 34.7088 61.1385 32.4471 60.6367 30.2204C59.7965 26.493 58.2504 22.9325 56.1055 19.7707C55.0326 18.1891 53.812 16.7082 52.4646 15.3529C51.3925 14.2746 50.2592 13.2928 49.0497 12.3868C47.2517 11.0401 45.1939 9.83487 43.2132 8.94924C39.2849 7.19273 34.9953 6.29602 30.6936 6.29602C22.4951 6.29602 14.7874 9.48868 8.99033 15.2857C8.43171 15.8443 7.90121 16.417 7.38775 17.0162C2.62374 22.5706 6.10352e-05 29.6639 6.10352e-05 36.9893C6.10352e-05 45.8479 3.7556 54.1395 10.3531 59.9724C13.3911 62.6682 16.9782 64.7672 20.8398 66.0727C24.0085 67.1439 27.3496 67.6824 30.6937 67.6824C35.7419 67.6824 40.6016 66.4673 44.9461 64.1836L47.1353 68.9998C47.4608 69.7159 48.1171 70.2271 48.8911 70.3675C49.6417 70.5037 50.4632 70.2556 51.0152 69.7034L52.605 68.1136C53.0288 67.6899 53.2774 67.1267 53.3051 66.5279L53.4978 62.3507L57.6205 58.6079L62.6689 66.2466C63.0677 66.8501 63.7091 67.2379 64.4288 67.3108C65.1246 67.3811 65.8582 67.1284 66.3663 66.6204L67.9558 65.031C68.4976 64.489 68.749 63.7137 68.6283 62.957L66.6344 50.4573L68.93 48.418C71.227 46.3775 72.6011 43.446 72.7003 40.3752C72.7348 39.3153 72.3245 38.2773 71.5744 37.5276ZM47.0811 13.588C53.4025 18.0216 57.6515 24.7947 58.8856 32.3549H41.3405C40.7014 32.3549 40.1005 32.106 39.6484 31.6539C39.1964 31.2019 38.9475 30.601 38.9475 29.9617C38.9475 28.6421 40.021 27.5686 41.3405 27.5686H45.5865C46.7927 27.5686 47.9274 27.0993 48.7826 26.2462C49.6362 25.3924 50.1064 24.2574 50.1064 23.0501C50.1064 20.5578 48.0787 18.5302 45.5865 18.5302H43.6241C42.9639 18.5302 42.3433 18.2733 41.876 17.806C41.4093 17.3403 41.1521 16.7202 41.1521 16.0597C41.1521 14.6967 42.2611 13.5879 43.6241 13.5879H47.0811V13.588ZM30.6937 65.5554C25.1245 65.5554 19.9228 63.9528 15.5246 61.1853H22.8092C24.1842 61.1853 25.4772 60.6497 26.4499 59.6771C27.4224 58.7045 27.958 57.4121 27.958 56.038C27.958 53.1998 25.6483 50.8908 22.8092 50.8908H19.039C18.6521 50.8908 18.2882 50.7401 18.0144 50.4664C17.7408 50.1927 17.59 49.8282 17.59 49.4401C17.59 48.6411 18.24 47.9911 19.039 47.9911H32.9157C34.5265 47.9911 36.0411 47.3636 37.1807 46.2242C38.3201 45.0847 38.9476 43.5696 38.9476 41.9577C38.9476 38.6318 36.2417 35.9259 32.9157 35.9259H27.4224C25.2051 35.9259 23.4013 34.1221 23.4013 31.9048V31.5658C23.4013 30.5812 23.7842 29.657 24.4799 28.9623C25.1754 28.2668 26.1006 27.8837 27.0849 27.8837C28.5865 27.8837 29.9974 27.2987 31.0563 26.2378C32.1185 25.1775 32.7036 23.7666 32.7036 22.265C32.7036 19.1661 30.1831 16.6449 27.085 16.6449H19.8362C19.2489 16.6449 18.7728 17.121 18.7728 17.7083C18.7728 18.2956 19.2489 18.7717 19.8362 18.7717H27.085C29.0104 18.7717 30.5769 20.3388 30.5769 22.265C30.5769 23.1978 30.2136 24.0741 29.5526 24.7339C28.8942 25.3936 28.0179 25.7569 27.0852 25.7569C25.5327 25.7569 24.0735 26.3611 22.9769 27.4577C21.8793 28.5535 21.2748 30.0124 21.2748 31.5657V31.9046C21.2748 35.2945 24.0327 38.0525 27.4227 38.0525H32.916C35.0692 38.0525 36.8211 39.8044 36.8211 41.9576C36.8211 43.0013 36.4148 43.9825 35.677 44.7202C34.9392 45.4578 33.9587 45.8642 32.916 45.8642H19.0393C17.0676 45.8642 15.4636 47.4684 15.4636 49.44C15.4636 50.3962 15.8354 51.2946 16.5109 51.97C17.1864 52.6454 18.0842 53.0173 19.0395 53.0173H22.8096C24.476 53.0173 25.8316 54.3723 25.8316 56.0378C25.8316 56.8437 25.5172 57.602 24.9464 58.173C24.3754 58.7439 23.6166 59.0583 22.8096 59.0583H12.5552C5.92276 53.6051 2.12689 45.5829 2.12689 36.9891C2.12689 30.3336 4.45409 23.8838 8.68943 18.7717H14.8613C15.4486 18.7717 15.9248 18.2956 15.9248 17.7083C15.9248 17.121 15.4486 16.6449 14.8613 16.6449H10.6643C15.8238 11.5643 22.8978 8.42257 30.6937 8.42257C35.299 8.42257 39.6521 9.51964 43.508 11.4639C41.0257 11.5259 39.0253 13.5627 39.0253 16.0596C39.0253 17.289 39.5042 18.4439 40.373 19.3106C41.2411 20.1788 42.3957 20.6569 43.6241 20.6569H45.5865C46.9061 20.6569 47.9796 21.7305 47.9796 23.05C47.9796 23.6891 47.7307 24.29 47.2796 24.7413C46.8267 25.193 46.2255 25.4416 45.5865 25.4416H41.3405C38.8483 25.4416 36.8206 27.4694 36.8206 29.9615C36.8206 31.1688 37.2908 32.3038 38.1445 33.1576C38.9984 34.0113 40.1334 34.4815 41.3405 34.4815H59.1493C59.2221 35.3077 59.26 36.144 59.26 36.9888C59.26 38.8193 59.0842 40.6092 58.7537 42.3448L58.6484 42.4633L53.1632 41.5883C52.5826 41.4951 52.038 41.891 51.9456 42.4708C51.8532 43.0507 52.2483 43.596 52.8281 43.6884L56.949 44.3459L51.931 49.8796L44.0224 44.653C43.9334 44.5942 43.9077 44.512 43.9019 44.4533C43.8959 44.3948 43.9047 44.3091 43.98 44.2337L45.5695 42.6443C45.6308 42.583 45.7187 42.5547 45.8045 42.5681L47.8863 42.9002C48.4664 42.9926 49.0114 42.5974 49.104 42.0177C49.1964 41.4378 48.8012 40.8925 48.2214 40.8L46.1395 40.4679C45.3833 40.3474 44.6073 40.5987 44.0658 41.1406L42.4762 42.7299C41.9648 43.2415 41.7131 43.9476 41.7858 44.6672C41.8587 45.3868 42.2463 46.0284 42.85 46.4272L50.4952 51.4799L46.7513 55.604L42.5741 55.7966C41.9756 55.8243 41.4125 56.073 40.9888 56.4967L39.3987 58.0866C38.8427 58.6428 38.5945 59.4369 38.7348 60.2109C38.875 60.9848 39.3864 61.6412 40.1023 61.9667L42.4341 63.0266C38.8505 64.6492 34.8764 65.5554 30.6937 65.5554ZM66.4523 63.5271L64.8629 65.1163C64.7875 65.1917 64.7015 65.2003 64.6433 65.1947C64.5848 65.1888 64.5025 65.1631 64.4438 65.074L59.217 57.1655L64.7508 52.1476L66.5286 63.2921C66.5422 63.3777 66.5137 63.4658 66.4523 63.5271ZM67.5179 46.8281L63.5615 50.3425L51.7413 61.073C51.5318 61.2631 51.4067 61.5288 51.3937 61.8114L51.1805 66.4298C51.1775 66.4977 51.1493 66.5616 51.101 66.6097L49.5112 68.1995C49.4281 68.2829 49.3343 68.2861 49.2704 68.2748C49.2065 68.2631 49.12 68.2269 49.0714 68.1197L46.7086 62.9213C46.6021 62.6873 46.4145 62.4998 46.1805 62.3933L40.9821 60.0304C40.8749 59.9817 40.8387 59.8953 40.8271 59.8314C40.8154 59.7675 40.8191 59.6737 40.9022 59.5905L42.4923 58.0006C42.5403 57.9526 42.6042 57.9243 42.6719 57.9212L47.2905 57.7081C47.5731 57.695 47.8386 57.5699 48.0287 57.3605L62.2738 41.5842C63.9283 39.7216 66.3052 38.6073 68.7953 38.527C68.8144 38.5264 68.8337 38.5261 68.8529 38.5261C69.3128 38.5261 69.7434 38.7042 70.0704 39.0313C70.4112 39.372 70.5902 39.8248 70.5746 40.3065C70.4945 42.7965 69.3803 45.1734 67.5179 46.8281Z" fill="#BB6BD9"/>
</svg>
