<svg width="549" height="138" viewBox="0 0 549 138" fill="none" xmlns="http://www.w3.org/2000/svg">
<path d="M26.4645 13.9134H35.3068C35.179 6.13636 28.7869 0.767044 19.071 0.767044C9.50426 0.767044 2.49432 6.05114 2.53693 13.9773C2.51562 20.4119 7.05398 24.098 14.4261 25.8665L19.1776 27.0597C23.929 28.2102 26.571 29.5739 26.5923 32.5142C26.571 35.7102 23.5455 37.8835 18.858 37.8835C14.0639 37.8835 10.6122 35.6676 10.3139 31.2997H1.38636C1.62074 40.7386 8.375 45.6179 18.9645 45.6179C29.6179 45.6179 35.8821 40.5256 35.9034 32.5355C35.8821 25.2699 30.4062 21.4134 22.821 19.7088L18.9006 18.7713C15.108 17.8977 11.9332 16.4915 11.9972 13.3594C11.9972 10.5469 14.4901 8.48011 19.0071 8.48011C23.4176 8.48011 26.1236 10.483 26.4645 13.9134ZM59.3462 12.2727H53.1886V4.43182H44.1119V12.2727H39.6374V19.0909H44.1119V36.1364C44.0692 42.5497 48.4371 45.7244 55.021 45.4474C57.3647 45.3622 59.0266 44.8935 59.9428 44.5952L58.5153 37.8409C58.0678 37.9261 57.109 38.1392 56.2567 38.1392C54.4457 38.1392 53.1886 37.4574 53.1886 34.9432V19.0909H59.3462V12.2727ZM74.5913 45.6179C79.4279 45.6179 82.56 43.5085 84.158 40.4616H84.4137V45H93.0217V22.9261C93.0217 15.1278 86.4165 11.8466 79.1296 11.8466C71.2887 11.8466 66.1325 15.5966 64.8754 21.5625L73.2702 22.2443C73.8881 20.071 75.8271 18.473 79.087 18.473C82.1765 18.473 83.945 20.0284 83.945 22.7131V22.8409C83.945 24.9503 81.7077 25.2273 76.0188 25.7812C69.5415 26.3778 63.7248 28.5511 63.7248 35.8594C63.7248 42.3366 68.3484 45.6179 74.5913 45.6179ZM77.1907 39.3537C74.3995 39.3537 72.3967 38.054 72.3967 35.5611C72.3967 33.0043 74.506 31.7472 77.7021 31.2997C79.6836 31.0227 82.9222 30.554 84.0089 29.8295V33.3026C84.0089 36.733 81.1751 39.3537 77.1907 39.3537ZM100.064 45H109.14V26.4844C109.14 22.4574 112.081 19.6875 116.086 19.6875C117.343 19.6875 119.069 19.9006 119.922 20.1776V12.1236C119.112 11.9318 117.983 11.804 117.066 11.804C113.402 11.804 110.397 13.9347 109.204 17.983H108.863V12.2727H100.064V45ZM143.663 12.2727H137.505V4.43182H128.428V12.2727H123.954V19.0909H128.428V36.1364C128.386 42.5497 132.754 45.7244 139.337 45.4474C141.681 45.3622 143.343 44.8935 144.259 44.5952L142.832 37.8409C142.384 37.9261 141.425 38.1392 140.573 38.1392C138.762 38.1392 137.505 37.4574 137.505 34.9432V19.0909H143.663V12.2727ZM161.076 1.36364L176.992 29.5739V45H186.154V29.5739L202.07 1.36364H191.736L181.786 20.1562H181.36L171.409 1.36364H161.076ZM214.929 45.6392C224.858 45.6392 231.037 38.8423 231.037 28.7642C231.037 18.6222 224.858 11.8466 214.929 11.8466C205 11.8466 198.821 18.6222 198.821 28.7642C198.821 38.8423 205 45.6392 214.929 45.6392ZM214.971 38.608C210.39 38.608 208.047 34.4105 208.047 28.7003C208.047 22.9901 210.39 18.7713 214.971 18.7713C219.467 18.7713 221.811 22.9901 221.811 28.7003C221.811 34.4105 219.467 38.608 214.971 38.608ZM257.926 31.0653C257.947 35.4545 254.943 37.7557 251.683 37.7557C248.252 37.7557 246.037 35.348 246.015 31.4915V12.2727H236.939V33.1108C236.96 40.7599 241.434 45.4261 248.018 45.4261C252.94 45.4261 256.477 42.8906 257.947 39.0554H258.288V45H267.002V12.2727H257.926V31.0653ZM274.263 45H283.339V26.4844C283.339 22.4574 286.28 19.6875 290.286 19.6875C291.543 19.6875 293.268 19.9006 294.121 20.1776V12.1236C293.311 11.9318 292.182 11.804 291.266 11.804C287.601 11.804 284.597 13.9347 283.403 17.983H283.062V12.2727H274.263V45ZM330.342 1.36364V31.7898C330.321 35.9872 328.446 38.2031 325.037 38.2031C321.82 38.2031 319.732 36.2003 319.668 32.7273H310.484C310.442 41.4418 316.663 45.5966 324.568 45.5966C333.411 45.5966 339.44 40.2486 339.462 31.7898V1.36364H330.342ZM361.706 45.6392C371.635 45.6392 377.814 38.8423 377.814 28.7642C377.814 18.6222 371.635 11.8466 361.706 11.8466C351.777 11.8466 345.598 18.6222 345.598 28.7642C345.598 38.8423 351.777 45.6392 361.706 45.6392ZM361.749 38.608C357.168 38.608 354.824 34.4105 354.824 28.7003C354.824 22.9901 357.168 18.7713 361.749 18.7713C366.244 18.7713 368.588 22.9901 368.588 28.7003C368.588 34.4105 366.244 38.608 361.749 38.608ZM404.703 31.0653C404.724 35.4545 401.72 37.7557 398.46 37.7557C395.03 37.7557 392.814 35.348 392.793 31.4915V12.2727H383.716V33.1108C383.737 40.7599 388.212 45.4261 394.795 45.4261C399.717 45.4261 403.254 42.8906 404.724 39.0554H405.065V45H413.78V12.2727H404.703V31.0653ZM421.04 45H430.117V26.4844C430.117 22.4574 433.057 19.6875 437.063 19.6875C438.32 19.6875 440.046 19.9006 440.898 20.1776V12.1236C440.088 11.9318 438.959 11.804 438.043 11.804C434.378 11.804 431.374 13.9347 430.181 17.983H429.84V12.2727H421.04V45ZM454.668 26.0795C454.689 21.8608 457.203 19.3892 460.868 19.3892C464.511 19.3892 466.706 21.7756 466.685 25.7812V45H475.761V24.1619C475.761 16.5341 471.287 11.8466 464.469 11.8466C459.611 11.8466 456.095 14.233 454.625 18.0469H454.241V12.2727H445.591V45H454.668V26.0795ZM497.83 45.6392C505.926 45.6392 511.381 41.6974 512.659 35.625L504.265 35.071C503.348 37.5639 501.005 38.8636 497.979 38.8636C493.441 38.8636 490.564 35.8594 490.564 30.9801V30.9588H512.851V28.4659C512.851 17.3438 506.118 11.8466 497.468 11.8466C487.837 11.8466 481.594 18.6861 481.594 28.7855C481.594 39.1619 487.752 45.6392 497.83 45.6392ZM490.564 25.3338C490.756 21.6051 493.59 18.6222 497.617 18.6222C501.559 18.6222 504.286 21.4347 504.307 25.3338H490.564ZM523.441 57.2727C530.195 57.2727 533.775 53.821 535.628 48.5369L548.348 12.3153L538.739 12.2727L531.9 36.3068H531.559L524.783 12.2727H515.238L526.978 45.9375L526.445 47.3224C525.252 50.3906 522.972 50.5398 519.776 49.5597L517.73 56.3352C519.03 56.8892 521.14 57.2727 523.441 57.2727ZM20.2216 92.2727H13.723V90.0781C13.723 87.8622 14.6179 86.5625 17.2812 86.5625C18.3679 86.5625 19.4759 86.7969 20.2003 87.0312L21.7983 80.2131C20.669 79.8722 18.1761 79.3182 15.3849 79.3182C9.22727 79.3182 4.64631 82.7912 4.64631 89.9077V92.2727H0.0227273V99.0909H4.64631V125H13.723V99.0909H20.2216V92.2727ZM39.3817 125.639C49.3107 125.639 55.4897 118.842 55.4897 108.764C55.4897 98.6222 49.3107 91.8466 39.3817 91.8466C29.4528 91.8466 23.2738 98.6222 23.2738 108.764C23.2738 118.842 29.4528 125.639 39.3817 125.639ZM39.4244 118.608C34.8434 118.608 32.4996 114.411 32.4996 108.7C32.4996 102.99 34.8434 98.7713 39.4244 98.7713C43.9201 98.7713 46.2639 102.99 46.2639 108.7C46.2639 114.411 43.9201 118.608 39.4244 118.608ZM61.3917 125H70.4684V106.484C70.4684 102.457 73.4087 99.6875 77.4144 99.6875C78.6715 99.6875 80.3974 99.9006 81.2496 100.178V92.1236C80.44 91.9318 79.3107 91.804 78.3945 91.804C74.7298 91.804 71.7255 93.9347 70.5323 97.983H70.1914V92.2727H61.3917V125ZM388.494 125.554C391.221 125.554 393.586 123.274 393.608 120.44C393.586 117.649 391.221 115.369 388.494 115.369C385.681 115.369 383.359 117.649 383.38 120.44C383.359 123.274 385.681 125.554 388.494 125.554Z" fill="#474747"/>
<path d="M99.9996 125H129.488V117.393H109.225V106.974H127.89V99.3679H109.225V88.9702H129.403V81.3636H99.9996V125ZM145.644 106.08C145.665 101.861 148.18 99.3892 151.844 99.3892C155.488 99.3892 157.683 101.776 157.661 105.781V125H166.738V104.162C166.738 96.5341 162.263 91.8466 155.445 91.8466C150.587 91.8466 147.072 94.233 145.602 98.0469H145.218V92.2727H136.567V125H145.644V106.08ZM173.892 92.2727V126.47C173.892 128.942 172.848 130.178 169.929 130.178C169.545 130.178 169.204 130.178 168.735 130.135V137.23C169.396 137.251 169.929 137.273 170.568 137.273C178.281 137.273 182.968 134.205 182.968 126.619V92.2727H173.892ZM178.409 88.054C181.115 88.054 183.331 85.9872 183.331 83.4517C183.331 80.9375 181.115 78.8707 178.409 78.8707C175.724 78.8707 173.508 80.9375 173.508 83.4517C173.508 85.9872 175.724 88.054 178.409 88.054ZM205.026 125.639C214.955 125.639 221.134 118.842 221.134 108.764C221.134 98.6222 214.955 91.8466 205.026 91.8466C195.097 91.8466 188.918 98.6222 188.918 108.764C188.918 118.842 195.097 125.639 205.026 125.639ZM205.069 118.608C200.488 118.608 198.144 114.411 198.144 108.7C198.144 102.99 200.488 98.7713 205.069 98.7713C209.565 98.7713 211.908 102.99 211.908 108.7C211.908 114.411 209.565 118.608 205.069 118.608ZM231.527 137.273C238.281 137.273 241.86 133.821 243.714 128.537L256.434 92.3153L246.825 92.2727L239.985 116.307H239.645L232.869 92.2727H223.324L235.064 125.938L234.531 127.322C233.338 130.391 231.058 130.54 227.862 129.56L225.816 136.335C227.116 136.889 229.225 137.273 231.527 137.273ZM275.136 125H303.07V117.393H284.362V81.3636H275.136V125ZM309.009 125H318.086V92.2727H309.009V125ZM313.569 88.054C316.275 88.054 318.49 85.9872 318.49 83.4517C318.49 80.9375 316.275 78.8707 313.569 78.8707C310.884 78.8707 308.668 80.9375 308.668 83.4517C308.668 85.9872 310.884 88.054 313.569 88.054ZM342.956 92.2727H336.457V90.0781C336.457 87.8622 337.352 86.5625 340.016 86.5625C341.102 86.5625 342.21 86.7969 342.935 87.0312L344.533 80.2131C343.403 79.8722 340.911 79.3182 338.119 79.3182C331.962 79.3182 327.381 82.7912 327.381 89.9077V92.2727H322.757V99.0909H327.381V125H336.457V99.0909H342.956V92.2727ZM362.244 125.639C370.341 125.639 375.795 121.697 377.074 115.625L368.679 115.071C367.762 117.564 365.419 118.864 362.393 118.864C357.855 118.864 354.978 115.859 354.978 110.98V110.959H377.265V108.466C377.265 97.3438 370.532 91.8466 361.882 91.8466C352.251 91.8466 346.008 98.6861 346.008 108.786C346.008 119.162 352.166 125.639 362.244 125.639ZM354.978 105.334C355.17 101.605 358.004 98.6222 362.031 98.6222C365.973 98.6222 368.7 101.435 368.721 105.334H354.978Z" fill="#1F39BA"/>
</svg>
