<svg width="50" height="51" viewBox="0 0 50 51" fill="none" xmlns="http://www.w3.org/2000/svg">
<path d="M50 43.9521C50 45.6098 49.3415 47.1995 48.1694 48.3716C46.9973 49.5437 45.4076 50.2021 43.75 50.2021L6.25 50.2021C4.5924 50.2021 3.00269 49.5437 1.83058 48.3716C0.65848 47.1995 0 45.6098 0 43.9521L0 6.45215C0 4.79455 0.65848 3.20483 1.83058 2.03273C3.00269 0.860629 4.5924 0.202148 6.25 0.202148L43.75 0.202148C45.4076 0.202148 46.9973 0.860629 48.1694 2.03273C49.3415 3.20483 50 4.79455 50 6.45215L50 43.9521ZM35.9375 23.6396H17.8344L24.5438 16.9334C24.8371 16.64 25.002 16.2421 25.002 15.8271C25.002 15.4122 24.8371 15.0143 24.5438 14.7209C24.2504 14.4275 23.8524 14.2627 23.4375 14.2627C23.0226 14.2627 22.6246 14.4275 22.3312 14.7209L12.9562 24.0959C12.8107 24.241 12.6953 24.4135 12.6165 24.6033C12.5378 24.7931 12.4972 24.9966 12.4972 25.2021C12.4972 25.4077 12.5378 25.6112 12.6165 25.801C12.6953 25.9908 12.8107 26.1633 12.9562 26.3084L22.3312 35.6834C22.6246 35.9768 23.0226 36.1416 23.4375 36.1416C23.8524 36.1416 24.2504 35.9768 24.5438 35.6834C24.8371 35.39 25.002 34.9921 25.002 34.5771C25.002 34.1622 24.8371 33.7643 24.5438 33.4709L17.8344 26.7646H35.9375C36.3519 26.7646 36.7493 26.6 37.0424 26.307C37.3354 26.014 37.5 25.6165 37.5 25.2021C37.5 24.7877 37.3354 24.3903 37.0424 24.0973C36.7493 23.8043 36.3519 23.6396 35.9375 23.6396Z" fill="#3793D8"/>
</svg>
