<svg width="50" height="51" viewBox="0 0 50 51" fill="none" xmlns="http://www.w3.org/2000/svg">
<path d="M3.82475e-06 6.45214C3.96966e-06 4.79454 0.658486 3.20483 1.83059 2.03273C3.00269 0.860626 4.5924 0.202144 6.25 0.202145L43.75 0.202148C45.4076 0.202148 46.9973 0.86063 48.1694 2.03273C49.3415 3.20483 50 4.79455 50 6.45215L50 43.9521C50 45.6098 49.3415 47.1995 48.1694 48.3716C46.9973 49.5437 45.4076 50.2021 43.75 50.2021L6.25 50.2021C4.5924 50.2021 3.00269 49.5437 1.83058 48.3716C0.658482 47.1995 4.0148e-07 45.6097 5.46392e-07 43.9521L3.82475e-06 6.45214ZM14.0625 26.7646L32.1656 26.7646L25.4563 33.4709C25.1629 33.7643 24.998 34.1622 24.998 34.5771C24.998 34.9921 25.1629 35.39 25.4563 35.6834C25.7496 35.9768 26.1476 36.1416 26.5625 36.1416C26.9774 36.1416 27.3754 35.9768 27.6688 35.6834L37.0438 26.3084C37.1893 26.1633 37.3047 25.9908 37.3835 25.801C37.4622 25.6112 37.5028 25.4077 37.5028 25.2021C37.5028 24.9966 37.4622 24.7931 37.3835 24.6033C37.3047 24.4135 37.1893 24.241 37.0438 24.0959L27.6688 14.7209C27.3754 14.4275 26.9774 14.2627 26.5625 14.2627C26.1476 14.2627 25.7496 14.4275 25.4563 14.7209C25.1629 15.0143 24.998 15.4122 24.998 15.8271C24.998 16.2421 25.1629 16.64 25.4563 16.9334L32.1656 23.6396L14.0625 23.6396C13.6481 23.6396 13.2507 23.8043 12.9576 24.0973C12.6646 24.3903 12.5 24.7877 12.5 25.2021C12.5 25.6165 12.6646 26.014 12.9576 26.307C13.2507 26.6 13.6481 26.7646 14.0625 26.7646Z" fill="#F1F1F1"/>
</svg>
