<svg width="113" height="17" viewBox="0 0 113 17" fill="none" xmlns="http://www.w3.org/2000/svg">
<path d="M16.2133 5.8362L11.1905 5.10623L8.94521 0.554284C8.88388 0.429654 8.78299 0.328764 8.65836 0.267438C8.3458 0.113135 7.96597 0.241721 7.80969 0.554284L5.56438 5.10623L0.541613 5.8362C0.403136 5.85599 0.276528 5.92127 0.179594 6.02018C0.062406 6.14063 -0.00216996 6.30268 5.56796e-05 6.47071C0.00228131 6.63875 0.0711264 6.79902 0.191463 6.91633L3.8255 10.4594L2.96694 15.4624C2.94681 15.5787 2.95969 15.6984 3.00412 15.8079C3.04855 15.9173 3.12275 16.0121 3.21832 16.0815C3.31388 16.1509 3.42698 16.1921 3.54479 16.2005C3.6626 16.2089 3.78041 16.1842 3.88485 16.129L8.37745 13.767L12.87 16.129C12.9927 16.1943 13.1351 16.2161 13.2716 16.1923C13.6158 16.133 13.8473 15.8066 13.788 15.4624L12.9294 10.4594L16.5634 6.91633C16.6623 6.81939 16.7276 6.69278 16.7474 6.55431C16.8008 6.20811 16.5595 5.88764 16.2133 5.8362Z" fill="#EEAA2B"/>
<path d="M40.2133 5.8362L35.1905 5.10623L32.9452 0.554284C32.8839 0.429654 32.783 0.328764 32.6584 0.267438C32.3458 0.113135 31.966 0.241721 31.8097 0.554284L29.5644 5.10623L24.5416 5.8362C24.4031 5.85599 24.2765 5.92127 24.1796 6.02018C24.0624 6.14063 23.9978 6.30268 24.0001 6.47071C24.0023 6.63875 24.0711 6.79902 24.1915 6.91633L27.8255 10.4594L26.9669 15.4624C26.9468 15.5787 26.9597 15.6984 27.0041 15.8079C27.0485 15.9173 27.1228 16.0121 27.2183 16.0815C27.3139 16.1509 27.427 16.1921 27.5448 16.2005C27.6626 16.2089 27.7804 16.1842 27.8849 16.129L32.3774 13.767L36.87 16.129C36.9927 16.1943 37.1351 16.2161 37.2716 16.1923C37.6158 16.133 37.8473 15.8066 37.788 15.4624L36.9294 10.4594L40.5634 6.91633C40.6623 6.81939 40.7276 6.69278 40.7474 6.55431C40.8008 6.20811 40.5595 5.88764 40.2133 5.8362Z" fill="#EEAA2B"/>
<path d="M64.2133 5.8362L59.1905 5.10623L56.9452 0.554284C56.8839 0.429654 56.783 0.328764 56.6584 0.267438C56.3458 0.113135 55.966 0.241721 55.8097 0.554284L53.5644 5.10623L48.5416 5.8362C48.4031 5.85599 48.2765 5.92127 48.1796 6.02018C48.0624 6.14063 47.9978 6.30268 48.0001 6.47071C48.0023 6.63875 48.0711 6.79902 48.1915 6.91633L51.8255 10.4594L50.9669 15.4624C50.9468 15.5787 50.9597 15.6984 51.0041 15.8079C51.0485 15.9173 51.1228 16.0121 51.2183 16.0815C51.3139 16.1509 51.427 16.1921 51.5448 16.2005C51.6626 16.2089 51.7804 16.1842 51.8849 16.129L56.3774 13.767L60.87 16.129C60.9927 16.1943 61.1351 16.2161 61.2716 16.1923C61.6158 16.133 61.8473 15.8066 61.788 15.4624L60.9294 10.4594L64.5634 6.91633C64.6623 6.81939 64.7276 6.69278 64.7474 6.55431C64.8008 6.20811 64.5595 5.88764 64.2133 5.8362Z" fill="#EEAA2B"/>
<path d="M88.2133 5.8362L83.1905 5.10623L80.9452 0.554284C80.8839 0.429654 80.783 0.328764 80.6584 0.267438C80.3458 0.113135 79.966 0.241721 79.8097 0.554284L77.5644 5.10623L72.5416 5.8362C72.4031 5.85599 72.2765 5.92127 72.1796 6.02018C72.0624 6.14063 71.9978 6.30268 72.0001 6.47071C72.0023 6.63875 72.0711 6.79902 72.1915 6.91633L75.8255 10.4594L74.9669 15.4624C74.9468 15.5787 74.9597 15.6984 75.0041 15.8079C75.0485 15.9173 75.1228 16.0121 75.2183 16.0815C75.3139 16.1509 75.427 16.1921 75.5448 16.2005C75.6626 16.2089 75.7804 16.1842 75.8849 16.129L80.3774 13.767L84.87 16.129C84.9927 16.1943 85.1351 16.2161 85.2716 16.1923C85.6158 16.133 85.8473 15.8066 85.788 15.4624L84.9294 10.4594L88.5634 6.91633C88.6623 6.81939 88.7276 6.69278 88.7474 6.55431C88.8008 6.20811 88.5595 5.88764 88.2133 5.8362Z" fill="#EEAA2B"/>
<path d="M112.213 5.8362L107.191 5.10623L104.945 0.554284C104.884 0.429654 104.783 0.328764 104.658 0.267438C104.346 0.113135 103.966 0.241721 103.81 0.554284L101.564 5.10623L96.5416 5.8362C96.4031 5.85599 96.2765 5.92127 96.1796 6.02018C96.0624 6.14063 95.9978 6.30268 96.0001 6.47071C96.0023 6.63875 96.0711 6.79902 96.1915 6.91633L99.8255 10.4594L98.9669 15.4624C98.9468 15.5787 98.9597 15.6984 99.0041 15.8079C99.0485 15.9173 99.1228 16.0121 99.2183 16.0815C99.3139 16.1509 99.427 16.1921 99.5448 16.2005C99.6626 16.2089 99.7804 16.1842 99.8849 16.129L104.377 13.767L108.87 16.129C108.993 16.1943 109.135 16.2161 109.272 16.1923C109.616 16.133 109.847 15.8066 109.788 15.4624L108.929 10.4594L112.563 6.91633C112.662 6.81939 112.728 6.69278 112.747 6.55431C112.801 6.20811 112.559 5.88764 112.213 5.8362Z" fill="#EEAA2B"/>
</svg>
