<svg width="204" height="29" viewBox="0 0 204 29" fill="none" xmlns="http://www.w3.org/2000/svg">
<path d="M0.278409 6.3821H8.29403V28H13.7656V6.3821H21.7812V1.81818H0.278409V6.3821ZM23.1811 28H28.6271V16.8906C28.6271 14.4744 30.3913 12.8125 32.7947 12.8125C33.549 12.8125 34.5845 12.9403 35.0959 13.1065V8.27415C34.6101 8.15909 33.9325 8.08239 33.3828 8.08239C31.1839 8.08239 29.3814 9.3608 28.6655 11.7898H28.4609V8.36364H23.1811V28ZM42.9485 28.3707C45.8505 28.3707 47.7298 27.1051 48.6886 25.277H48.842V28H54.0067V14.7557C54.0067 10.0767 50.0437 8.10795 45.6715 8.10795C40.967 8.10795 37.8732 10.358 37.119 13.9375L42.1559 14.3466C42.5266 13.0426 43.69 12.0838 45.646 12.0838C47.4996 12.0838 48.5607 13.017 48.5607 14.6278V14.7045C48.5607 15.9702 47.2184 16.1364 43.805 16.4688C39.9187 16.8267 36.4286 18.1307 36.4286 22.5156C36.4286 26.402 39.2028 28.3707 42.9485 28.3707ZM44.5082 24.6122C42.8335 24.6122 41.6317 23.8324 41.6317 22.3366C41.6317 20.8026 42.8974 20.0483 44.815 19.7798C46.0039 19.6136 47.9471 19.3324 48.5991 18.8977V20.9815C48.5991 23.0398 46.8988 24.6122 44.5082 24.6122ZM75.8356 8.36364H70.07L66.0046 22.4134H65.8001L61.7219 8.36364H55.9691L62.8342 28H68.9705L75.8356 8.36364ZM86.9034 28.3835C91.7614 28.3835 95.0341 26.0185 95.8011 22.375L90.7642 22.0426C90.2145 23.5384 88.8082 24.3182 86.9929 24.3182C84.2699 24.3182 82.544 22.5156 82.544 19.5881V19.5753H95.9162V18.0795C95.9162 11.4062 91.8764 8.10795 86.6861 8.10795C80.9077 8.10795 77.1619 12.2116 77.1619 18.2713C77.1619 24.4972 80.8565 28.3835 86.9034 28.3835ZM82.544 16.2003C82.6591 13.9631 84.3594 12.1733 86.7756 12.1733C89.1406 12.1733 90.777 13.8608 90.7898 16.2003H82.544ZM104.916 1.81818H99.4702V28H104.916V1.81818ZM109.279 28H114.725V8.36364H109.279V28ZM112.015 5.83239C113.638 5.83239 114.968 4.59233 114.968 3.07102C114.968 1.5625 113.638 0.322442 112.015 0.322442C110.404 0.322442 109.074 1.5625 109.074 3.07102C109.074 4.59233 110.404 5.83239 112.015 5.83239ZM123.638 8.36364H118.013L123.638 18.1818L117.809 28H123.434L127.244 21.2116L131.117 28H136.678L130.836 18.1818L136.525 8.36364H130.938L127.244 15.2287L123.638 8.36364Z" fill="#0600AE"/>
<path d="M148.194 28H153.729V19.5114H158.382C164.404 19.5114 167.907 15.919 167.907 10.6903C167.907 5.48722 164.468 1.81818 158.523 1.81818H148.194V28ZM153.729 15.0753V6.34375H157.462C160.658 6.34375 162.205 8.08239 162.205 10.6903C162.205 13.2855 160.658 15.0753 157.488 15.0753H153.729ZM171.4 28H176.846V16.8906C176.846 14.4744 178.61 12.8125 181.013 12.8125C181.768 12.8125 182.803 12.9403 183.315 13.1065V8.27415C182.829 8.15909 182.151 8.08239 181.602 8.08239C179.403 8.08239 177.6 9.3608 176.884 11.7898H176.68V8.36364H171.4V28ZM194.088 28.3835C200.046 28.3835 203.753 24.3054 203.753 18.2585C203.753 12.1733 200.046 8.10795 194.088 8.10795C188.131 8.10795 184.424 12.1733 184.424 18.2585C184.424 24.3054 188.131 28.3835 194.088 28.3835ZM194.114 24.1648C191.365 24.1648 189.959 21.6463 189.959 18.2202C189.959 14.794 191.365 12.2628 194.114 12.2628C196.811 12.2628 198.218 14.794 198.218 18.2202C198.218 21.6463 196.811 24.1648 194.114 24.1648Z" fill="#474747"/>
</svg>
